<svg xmlns="http://www.w3.org/2000/svg" xmlns:xlink="http://www.w3.org/1999/xlink" version="1.1" width="256" height="256" viewBox="0 0 256 256" xml:space="preserve">

<defs>
</defs>
<g style="stroke: none; stroke-width: 0; stroke-dasharray: none; stroke-linecap: butt; stroke-linejoin: miter; stroke-miterlimit: 10; fill: none; fill-rule: nonzero; opacity: 1;" transform="translate(1.4065934065934016 1.4065934065934016) scale(2.81 2.81)" >
	<path d="M 41.395 69.4 L 20.697 83.978 c -2.114 1.489 -4.908 -0.564 -4.119 -3.026 l 7.692 -24.007 c 0.82 -2.56 -0.086 -5.359 -2.251 -6.952 L 2.023 35.278 c -2.096 -1.543 -1.005 -4.866 1.598 -4.866 h 24.72 c 2.689 0 5.077 -1.717 5.934 -4.266 l 8.171 -24.31 c 0.823 -2.449 4.287 -2.449 5.11 0 l 8.171 24.31 c 0.857 2.549 3.245 4.266 5.934 4.266 h 24.72 c 2.603 0 3.694 3.324 1.598 4.866 L 67.981 49.993 c -2.166 1.594 -3.072 4.392 -2.251 6.952 l 7.692 24.007 c 0.789 2.462 -2.005 4.515 -4.119 3.026 L 48.605 69.4 C 46.443 67.878 43.557 67.878 41.395 69.4 z" style="stroke: none; stroke-width: 1; stroke-dasharray: none; stroke-linecap: butt; stroke-linejoin: miter; stroke-miterlimit: 10; fill: rgb(244,180,0); fill-rule: nonzero; opacity: 1;" transform=" matrix(1 0 0 1 0 0) " stroke-linecap="round" />
	<path d="M 86.418 62.317 c -0.219 0 -0.441 -0.036 -0.661 -0.11 L 73.405 58 c -1.072 -0.365 -1.645 -1.531 -1.28 -2.602 c 0.364 -1.072 1.528 -1.645 2.602 -1.28 l 12.353 4.207 c 1.072 0.365 1.645 1.531 1.28 2.602 C 88.069 61.779 87.272 62.317 86.418 62.317 z" style="stroke: none; stroke-width: 1; stroke-dasharray: none; stroke-linecap: butt; stroke-linejoin: miter; stroke-miterlimit: 10; fill: rgb(244,180,0); fill-rule: nonzero; opacity: 1;" transform=" matrix(1 0 0 1 0 0) " stroke-linecap="round" />
	<path d="M 62.794 24.938 c -0.434 0 -0.873 -0.137 -1.244 -0.421 c -0.9 -0.688 -1.071 -1.975 -0.383 -2.874 l 8.78 -11.48 c 0.688 -0.898 1.975 -1.071 2.874 -0.383 c 0.9 0.688 1.071 1.975 0.383 2.874 l -8.78 11.48 C 64.021 24.661 63.41 24.938 62.794 24.938 z" style="stroke: none; stroke-width: 1; stroke-dasharray: none; stroke-linecap: butt; stroke-linejoin: miter; stroke-miterlimit: 10; fill: rgb(244,180,0); fill-rule: nonzero; opacity: 1;" transform=" matrix(1 0 0 1 0 0) " stroke-linecap="round" />
	<path d="M 27.206 24.938 c -0.617 0 -1.226 -0.277 -1.63 -0.805 l -8.78 -11.48 c -0.688 -0.899 -0.516 -2.186 0.383 -2.874 c 0.898 -0.688 2.185 -0.516 2.874 0.383 l 8.78 11.48 c 0.688 0.899 0.516 2.186 -0.383 2.874 C 28.079 24.801 27.641 24.938 27.206 24.938 z" style="stroke: none; stroke-width: 1; stroke-dasharray: none; stroke-linecap: butt; stroke-linejoin: miter; stroke-miterlimit: 10; fill: rgb(244,180,0); fill-rule: nonzero; opacity: 1;" transform=" matrix(1 0 0 1 0 0) " stroke-linecap="round" />
	<path d="M 3.582 62.317 c -0.853 0 -1.65 -0.538 -1.941 -1.391 c -0.365 -1.071 0.208 -2.236 1.28 -2.602 l 12.352 -4.207 c 1.072 -0.363 2.237 0.209 2.601 1.28 c 0.365 1.071 -0.208 2.236 -1.28 2.602 L 4.243 62.207 C 4.024 62.281 3.801 62.317 3.582 62.317 z" style="stroke: none; stroke-width: 1; stroke-dasharray: none; stroke-linecap: butt; stroke-linejoin: miter; stroke-miterlimit: 10; fill: rgb(244,180,0); fill-rule: nonzero; opacity: 1;" transform=" matrix(1 0 0 1 0 0) " stroke-linecap="round" />
	<path d="M 45 90 c -1.132 0 -2.05 -0.918 -2.05 -2.05 V 76.532 c 0 -1.132 0.918 -2.05 2.05 -2.05 s 2.05 0.918 2.05 2.05 V 87.95 C 47.05 89.082 46.132 90 45 90 z" style="stroke: none; stroke-width: 1; stroke-dasharray: none; stroke-linecap: butt; stroke-linejoin: miter; stroke-miterlimit: 10; fill: rgb(244,180,0); fill-rule: nonzero; opacity: 1;" transform=" matrix(1 0 0 1 0 0) " stroke-linecap="round" />
</g>
</svg>