<svg width="75" height="75" viewBox="0 0 160 160" fill="none" xmlns="http://www.w3.org/2000/svg"><g clip-path="url(#clip0_439_4273)">
<rect width="160" height="160" fill="#CE283D"/>
<rect x="35" y="-20" width="116" height="116" rx="22" fill="#F6CAA2"/>
</g>
<defs>
<clipPath id="clip0_439_4273">
<rect width="160" height="160" fill="white"/>
</clipPath>
</defs>
<path d="M61.4026 68.4614C65.5053 70.9727 72.6992 66.6894 77.4706 58.8943C82.242 51.0993 82.7841 42.7443 78.6814 40.2331C74.5788 37.7218 67.3849 42.0052 62.6135 49.8002C57.8421 57.5953 57.3 65.9502 61.4026 68.4614Z" fill="white"/>
<path d="M68.3997 60.7258C71.1711 60.059 72.8249 57.0541 72.0934 54.0142C71.362 50.9743 68.5224 49.0506 65.751 49.7174C62.9796 50.3842 61.3259 53.3891 62.0573 56.429C62.7887 59.4689 65.6283 61.3926 68.3997 60.7258Z" fill="black"/>
<path d="M95.3128 66.4614C99.4155 68.9727 106.609 64.6894 111.381 56.8943C116.152 49.0993 116.694 40.7443 112.592 38.2331C108.489 35.7218 101.295 40.0052 96.5237 47.8002C91.7523 55.5953 91.2101 63.9502 95.3128 66.4614Z" fill="white"/>
<path d="M102.31 58.7258C105.081 58.059 106.735 55.0541 106.004 52.0142C105.272 48.9743 102.433 47.0506 99.6611 47.7174C96.8897 48.3842 95.236 51.3891 95.9674 54.429C96.6989 57.4689 99.5385 59.3926 102.31 58.7258Z" fill="black"/>
<path d="M78.7412 74.4787C78.7667 77.0411 79.7308 78.6505 81.4366 80.4457C83.1423 82.2408 85.4415 83.236 87.8284 83.2123C90.2152 83.1886 92.4942 82.1479 94.164 80.3192C95.8337 78.4904 96.7658 76.8622 96.7403 74.2998C96.7338 73.65 96.2019 73.1286 95.5522 73.135L79.9175 73.2904C79.2678 73.2969 78.7347 73.8289 78.7412 74.4787Z" fill="black"/>
<g clip-path="url(#clip0_439_7154)">
<path fill-rule="evenodd" clip-rule="evenodd" d="M62.5172 95.8083C61.289 96.4961 60.2142 97.195 59.4573 97.8709C58.511 98.7159 57.6759 100.227 56.9307 101.842C56.1393 103.556 55.2996 105.735 54.4373 108.219C52.7105 113.193 50.8429 119.538 49.0408 126.162C45.435 139.414 42.0556 153.912 40.5429 161.087C40.3151 162.168 41.0065 163.229 42.0873 163.457C43.1681 163.685 44.229 162.993 44.4569 161.912C45.9547 154.808 49.3161 140.385 52.9004 127.212C54.6934 120.622 56.5332 114.379 58.2161 109.531C59.0586 107.104 59.8493 105.063 60.5625 103.518C61.322 101.872 61.8658 101.083 62.1215 100.854C62.8648 100.191 64.3947 99.2755 66.5008 98.2392C68.027 97.4882 69.76 96.7192 71.5296 95.9863C68.223 95.9671 65.2318 95.9207 62.5172 95.8083ZM120.963 95.8927C122.152 96.2428 123.302 96.5947 124.386 96.9434C127.676 98.0008 130.201 98.9757 131.491 99.7279C134.223 101.322 137.173 104.802 140.074 109.655C142.938 114.446 145.613 120.331 147.891 126.428C150.168 132.52 152.029 138.774 153.281 144.281C154.542 149.834 155.147 154.475 155.003 157.401C154.948 158.504 155.799 159.443 156.902 159.497C158.005 159.552 158.943 158.702 158.998 157.598C159.17 154.113 158.464 149.04 157.181 143.395C155.888 137.705 153.974 131.279 151.638 125.028C149.305 118.783 146.532 112.662 143.508 107.603C140.521 102.607 137.144 98.3948 133.506 96.2727C132.897 95.9174 132.135 95.5507 131.26 95.1782C128.299 95.5832 124.9 95.7886 120.963 95.8927Z" fill="white"/>
</g>
<defs>
<clipPath id="clip0_439_7154">
<rect width="160" height="160" fill="white"/>
</clipPath>
</defs>
</svg>